<svg xmlns="http://www.w3.org/2000/svg" viewBox="0 0 512 512">
  <rect width="512" height="512" fill="#d97706" rx="100"/>
  <g transform="translate(256, 256)">
    <!-- Bus icon -->
    <path d="M-120,-140 h240 a20,20 0 0 1 20,20 v200 a20,20 0 0 1 -20,20 h-40 l-20,40 h-120 l-20,-40 h-40 a20,20 0 0 1 -20,-20 v-200 a20,20 0 0 1 20,-20 z"
          fill="white" stroke="white" stroke-width="4"/>
    <!-- Windows -->
    <rect x="-100" y="-100" width="80" height="60" fill="#d97706" rx="5"/>
    <rect x="20" y="-100" width="80" height="60" fill="#d97706" rx="5"/>
    <!-- Wheels -->
    <circle cx="-70" cy="100" r="25" fill="#1f2937"/>
    <circle cx="-70" cy="100" r="15" fill="#6b7280"/>
    <circle cx="70" cy="100" r="25" fill="#1f2937"/>
    <circle cx="70" cy="100" r="15" fill="#6b7280"/>
    <!-- Door -->
    <rect x="-30" y="-20" width="60" height="80" fill="#d97706" rx="5"/>
    <line x1="0" y1="-20" x2="0" y2="60" stroke="white" stroke-width="3"/>
  </g>
</svg>
